HIERARCHY
ROOT SpineBase
{
  OFFSET 0.000000 0.000000 0.000000
  CHANNELS 6 Xposition Yposition Zposition Zrotation Xrotation Yrotation
  JOINT SpineMid
  {
    OFFSET 0.000000 34.788714 -0.000000
    CHANNELS 3 Zrotation Xrotation Yrotation
    JOINT SpineShoulder
    {
      OFFSET -0.339743 26.311330 -0.462150
      CHANNELS 3 Zrotation Xrotation Yrotation
      JOINT Neck
      {
        OFFSET -0.252759 8.906408 -0.360963
        CHANNELS 3 Zrotation Xrotation Yrotation
        JOINT Head
        {
          OFFSET 1.907765 10.217155 1.373338
          CHANNELS 3 Zrotation Xrotation Yrotation
          End Site
          {
            OFFSET 0 0 0
          }
        }
      }
      JOINT ShoulderLeft
      {
        OFFSET -8.771977 -2.571228 0.968514
        CHANNELS 3 Zrotation Xrotation Yrotation
        JOINT ElbowLeft
        {
          OFFSET 1.003797 23.060740 -1.467319
          CHANNELS 3 Zrotation Xrotation Yrotation
          JOINT WristLeft
          {
            OFFSET 17.713412 -25.086811 9.138317
            CHANNELS 3 Zrotation Xrotation Yrotation
            JOINT HandLeft
            {
              OFFSET 1.807080 -2.627330 0.917501
              CHANNELS 3 Zrotation Xrotation Yrotation
              JOINT HandTipLeft
              {
                OFFSET 2.372454 0.078793 0.998153
                CHANNELS 3 Zrotation Xrotation Yrotation
                End Site
                {
                  OFFSET 0 0 0
                }
              }
              JOINT ThumbLeft
              {
                OFFSET 2.128386 3.531278 2.826773
                CHANNELS 3 Zrotation Xrotation Yrotation
                End Site
                {
                  OFFSET 0 0 0
                }
              }
            }
          }
        }
      }
      JOINT ShoulderRight
      {
        OFFSET 11.903346 -14.790833 -0.870312
        CHANNELS 3 Zrotation Xrotation Yrotation
        JOINT ElbowRight
        {
          OFFSET 14.504769 -21.666220 11.188391
          CHANNELS 3 Zrotation Xrotation Yrotation
          JOINT WristRight
          {
            OFFSET 16.954350 -18.890397 13.673173
            CHANNELS 3 Zrotation Xrotation Yrotation
            JOINT HandRight
            {
              OFFSET 5.456923 -2.190639 -0.914045
              CHANNELS 3 Zrotation Xrotation Yrotation
              JOINT HandTipRight
              {
                OFFSET 0.395609 -0.022859 -0.127157
                CHANNELS 3 Zrotation Xrotation Yrotation
                End Site
                {
                  OFFSET 0 0 0
                }
              }
              JOINT ThumbRight
              {
                OFFSET -1.343464 2.347713 -1.739015
                CHANNELS 3 Zrotation Xrotation Yrotation
                End Site
                {
                  OFFSET 0 0 0
                }
              }
            }
          }
        }
      }
    }
  }
  JOINT HipLeft
  {
    OFFSET -5.579869 3.970533 -0.214552
    CHANNELS 3 Zrotation Xrotation Yrotation
    JOINT KneeLeft
    {
      OFFSET 16.688175 -4.257716 -12.489544
      CHANNELS 3 Zrotation Xrotation Yrotation
      JOINT AnkleLeft
      {
        OFFSET -6.252265 -44.538758 -0.448571
        CHANNELS 3 Zrotation Xrotation Yrotation
        JOINT FootLeft
        {
          OFFSET -1.607839 -0.922687 -11.584451
          CHANNELS 3 Zrotation Xrotation Yrotation
          End Site
          {
            OFFSET 0 0 0
          }
        }
      }
    }
  }
  JOINT HipRight
  {
    OFFSET 2.878811 0.263339 -3.535726
    CHANNELS 3 Zrotation Xrotation Yrotation
    JOINT KneeRight
    {
      OFFSET 9.264339 -30.646471 18.336877
      CHANNELS 3 Zrotation Xrotation Yrotation
      JOINT AnkleRight
      {
        OFFSET -4.714535 -32.915881 -2.994855
        CHANNELS 3 Zrotation Xrotation Yrotation
        JOINT FootRight
        {
          OFFSET -0.217601 11.295111 -9.471658
          CHANNELS 3 Zrotation Xrotation Yrotation
          End Site
          {
            OFFSET 0 0 0
          }
        }
      }
    }
  }
}
MOTION
Frames: 8
Frame Time: 0.033333
224.691653 65.618682 319.991548 -0.000000 -0.000000 21.436707 0.000000 0.000000 -21.436707 -0.000000 0.000000 0.000000 -0.000000 0.000000 0.000000 0.000000 0.000000 0.000000 -0.000000 0.000000 0.000000 -0.000000 0.000000 0.000000 -0.000000 0.000000 0.000000 -0.000000 0.000000 0.000000 0.000000 0.000000 0.000000 0.000000 0.000000 0.000000 -0.000000 0.000000 0.000000 -0.000000 0.000000 0.000000 -0.000000 0.000000 0.000000 -0.000000 0.000000 0.000000 0.000000 0.000000 0.000000 0.000000 0.000000 0.000000 0.000000 0.000000 -21.436707 -0.000000 0.000000 0.000000 -0.000000 0.000000 0.000000 0.000000 0.000000 0.000000 0.000000 0.000000 -21.436707 -0.000000 0.000000 0.000000 -0.000000 0.000000 0.000000 0.000000 0.000000 0.000000
217.160676 64.170167 318.321089 -0.223724 -0.254793 42.131782 0.336839 0.038871 -42.132394 -0.000000 0.000000 0.000000 -0.000000 0.000000 0.000000 0.000000 0.000000 0.000000 -0.000000 0.000000 0.000000 -7.759951 2.814644 -0.691621 -20.218638 -9.243379 -18.935868 16.405983 20.457974 -28.493013 0.000000 0.000000 0.000000 0.000000 0.000000 0.000000 -0.000000 0.000000 0.000000 -0.000000 0.000000 0.000000 -0.000000 0.000000 0.000000 0.806160 0.258837 -0.005926 0.000000 0.000000 0.000000 0.000000 0.000000 0.000000 7.239204 0.233666 -38.985529 -5.254228 -4.486629 -3.369270 -0.000000 0.000000 0.000000 0.000000 0.000000 0.000000 -1.688811 -1.817632 -43.130983 0.210003 2.739425 0.962118 0.771346 0.040955 0.647448 0.000000 0.000000 0.000000
211.327551 63.004988 316.687885 -0.392725 -0.345509 51.720520 0.514514 -0.094250 -51.721281 -0.000000 0.000000 0.000000 -0.000000 0.000000 0.000000 0.000000 0.000000 0.000000 -0.000000 0.000000 0.000000 -16.504027 5.939983 -1.130805 -36.724971 -9.273209 -38.090726 31.056398 40.571555 -42.564983 0.000000 0.000000 0.000000 0.000000 0.000000 0.000000 -0.000000 0.000000 0.000000 -0.000000 0.000000 0.000000 -0.000000 0.000000 0.000000 1.456609 0.468632 0.001126 0.000000 0.000000 0.000000 0.000000 0.000000 0.000000 12.117009 -1.514770 -46.306589 -9.078015 -7.392595 -5.838896 -0.000000 0.000000 0.000000 0.000000 0.000000 0.000000 -3.638678 -2.789743 -53.545523 0.305358 4.940401 1.706479 1.420475 0.083517 1.192192 0.000000 0.000000 0.000000
207.192275 62.123144 315.091937 -0.525107 -0.304154 56.584129 0.543058 -0.270806 -56.584239 -0.810462 -0.006134 -0.033071 0.810458 0.006601 0.032981 0.000000 0.000000 0.000000 0.810458 0.006601 0.032981 -25.884683 9.174465 -1.221902 -40.058688 -7.259180 -48.150160 38.576659 52.089155 -50.100628 0.000000 0.000000 0.000000 0.000000 0.000000 0.000000 0.810458 0.006601 0.032981 -0.000000 0.000000 0.000000 -0.000000 0.000000 0.000000 1.966897 0.634592 0.022239 0.000000 0.000000 0.000000 0.000000 0.000000 0.000000 15.103086 -3.170183 -49.649244 -11.687357 -9.205962 -7.439551 -0.000000 0.000000 0.000000 0.000000 0.000000 0.000000 -5.395542 -3.472148 -59.085873 0.318531 6.735556 2.288700 1.949024 0.124303 1.635657 0.000000 0.000000 0.000000
204.754851 61.524637 313.533244 -0.631848 -0.143046 59.101229 -0.007279 0.214388 -59.116100 -0.124753 0.223054 -0.016276 0.944346 -0.183344 0.034571 0.000000 0.000000 0.000000 0.944346 -0.183344 0.034571 -35.358487 12.240932 -0.967733 -36.321937 -7.054774 -52.535923 41.845462 58.234037 -56.106757 0.000000 0.000000 0.000000 0.000000 0.000000 0.000000 0.944346 -0.183344 0.034571 -0.000000 0.000000 0.000000 -0.000000 0.000000 0.000000 2.347952 0.760377 0.058480 0.000000 0.000000 0.000000 0.000000 0.000000 0.000000 16.702321 -4.397293 -51.354070 -13.271993 -10.238082 -8.245245 -0.000000 0.000000 0.000000 0.000000 0.000000 0.000000 -6.939015 -4.095891 -62.159028 0.267445 8.218083 2.744929 2.358713 0.160632 1.979340 0.000000 0.000000 0.000000
204.015278 61.209466 312.011807 -0.720011 0.139437 60.191827 -0.010143 0.219321 -60.203525 -0.118283 0.229227 -0.013788 1.033834 -0.468392 0.032820 0.000000 0.000000 0.000000 1.033834 -0.468392 0.032820 -44.339075 14.894562 -0.494575 -29.784775 -8.310040 -53.635872 42.676509 61.850097 -62.182872 0.000000 0.000000 0.000000 0.000000 0.000000 0.000000 1.033834 -0.468392 0.032820 -0.000000 0.000000 0.000000 -0.000000 0.000000 0.000000 2.606716 0.848302 0.111034 0.000000 0.000000 0.000000 0.000000 0.000000 0.000000 17.174628 -5.193716 -52.309618 -13.959881 -10.658570 -8.311604 0.030574 0.276956 -0.841397 0.000000 0.000000 0.000000 -8.303730 -4.776322 -63.710343 0.161169 9.454355 3.098925 2.651203 0.190488 2.224689 0.000000 0.000000 0.000000
211.169451 61.810935 310.133864 -0.723339 1.214540 59.848368 -0.042330 0.176840 -59.841557 -0.053020 0.191589 0.003280 0.994504 -2.332890 0.168264 0.000000 0.000000 0.000000 0.950556 -1.458383 0.009227 -59.128368 18.276414 -0.382468 -17.770965 -8.630911 -46.914186 46.413952 63.027940 -71.616985 0.000000 0.000000 0.000000 0.000000 0.000000 0.000000 0.950556 -1.458383 0.009227 -0.000000 0.000000 0.000000 -0.000000 0.000000 0.000000 2.116656 0.678220 -0.037228 0.000000 0.000000 0.000000 0.000000 0.000000 0.000000 14.765495 -5.547300 -53.176948 -12.723998 -9.803164 -6.846494 -0.000737 0.944226 -1.482656 0.000000 0.000000 0.000000 -10.628759 -6.117482 -64.059817 0.024162 11.054670 3.569693 2.815131 0.203955 2.362130 0.000000 0.000000 0.000000
215.069336 61.628457 310.814099 -1.094982 2.084124 52.495064 -0.084530 0.117054 -52.472434 0.006680 0.145842 0.009968 1.317458 -3.263669 0.195649 0.000000 0.000000 0.000000 1.232261 -2.234462 0.010543 -62.155929 20.423832 3.652120 -5.630084 -16.953070 -44.646848 16.450601 67.437793 -62.432960 0.000000 0.000000 0.000000 0.000000 0.000000 0.000000 1.232261 -2.234462 0.010543 -0.000000 0.000000 0.000000 -0.000000 0.000000 0.000000 1.853030 0.613778 0.231993 0.000000 0.000000 0.000000 0.000000 0.000000 0.000000 11.492107 -5.297636 -50.905022 -10.304399 -7.712019 -1.472324 -0.016051 1.390458 -1.927087 0.000000 0.000000 0.000000 -10.124852 -9.035027 -56.646290 -0.665984 11.390663 3.326129 2.630241 0.173494 2.206922 0.000000 0.000000 0.000000
